<?xml version="1.0" standalone="no"?>
<!DOCTYPE svg PUBLIC "-//W3C//DTD SVG 20010904//EN"
 "http://www.w3.org/TR/2001/REC-SVG-20010904/DTD/svg10.dtd">
<svg version="1.0" xmlns="http://www.w3.org/2000/svg"
 width="700.000000pt" height="700.000000pt" viewBox="0 0 700.000000 700.000000"
 preserveAspectRatio="xMidYMid meet">
<metadata>
Created by potrace 1.14, written by Peter Selinger 2001-2017
</metadata>
<g transform="translate(0.000000,700.000000) scale(0.100000,-0.100000)"
fill="#000000" stroke="none">
<path d="M4210 6989 c-13 -5 -49 -29 -79 -52 -297 -226 -508 -481 -680 -817
-40 -80 -75 -148 -77 -151 -4 -8 -116 13 -245 47 -130 33 -231 29 -379 -14
-408 -121 -892 -515 -1274 -1037 -316 -431 -566 -942 -690 -1408 -14 -51 -29
-107 -35 -125 -5 -18 -10 -35 -10 -37 0 -3 -7 -38 -15 -78 -9 -39 -18 -83 -20
-97 -2 -14 -7 -36 -10 -50 -14 -64 -42 -267 -53 -395 -10 -115 -10 -497 0
-595 10 -98 34 -259 48 -318 6 -26 12 -54 14 -62 42 -200 153 -471 270 -660
33 -52 63 -99 67 -105 4 -5 38 -48 75 -95 184 -235 436 -436 739 -591 128 -65
160 -79 329 -141 146 -53 419 -124 555 -143 25 -3 52 -8 60 -10 8 -2 34 -6 58
-9 23 -4 59 -8 80 -11 173 -22 291 -29 572 -29 241 -1 416 5 515 18 17 3 62 7
100 11 39 4 73 9 76 11 3 1 28 6 55 9 52 7 86 12 120 19 342 69 575 147 841
282 446 226 779 565 986 1005 88 187 169 464 192 654 3 28 8 59 10 70 26 125
26 672 0 807 -3 11 -7 46 -11 77 -3 31 -8 65 -10 76 -3 11 -7 43 -10 70 -3 28
-8 53 -10 56 -2 4 -6 24 -10 45 -3 22 -23 113 -46 204 -158 648 -482 1280
-918 1791 -57 67 -310 323 -370 374 -80 68 -281 214 -355 257 -163 96 -346
169 -460 184 -27 3 -59 8 -70 10 -54 10 -118 4 -200 -19 -116 -34 -165 -42
-165 -29 0 10 48 98 85 157 106 167 289 366 459 500 104 82 129 118 128 185
-1 65 -32 119 -86 147 -36 19 -114 26 -146 12z"/>
</g>
</svg>
