<?xml version="1.0" standalone="no"?><!DOCTYPE svg PUBLIC "-//W3C//DTD SVG 1.1//EN" "http://www.w3.org/Graphics/SVG/1.1/DTD/svg11.dtd"><svg t="1681896177330" class="icon" viewBox="0 0 1024 1024" version="1.1" xmlns="http://www.w3.org/2000/svg" p-id="14408" xmlns:xlink="http://www.w3.org/1999/xlink" width="128" height="128"><path d="M994 210.219h-35v430a50 50 0 0 1-50 50H726.919l100.466 225.8a29.972 29.972 0 1 1-54.754 24.4l-111.32-250.2H543v50.837a80 80 0 1 1-60 0v-50.837H363.479L251.836 940.972a30 30 0 1 1-54.812-24.405L297.8 690.219H115a50 50 0 0 1-50-50v-430H30a30 30 0 0 1 0-60h342v-35a50 50 0 0 1 50-50h180a50 50 0 0 1 50 50v35h342a30 30 0 0 1 0 60z m-481 625a20 20 0 1 0-20-20 20 20 0 0 0 20 20z m79-690a20 20 0 0 0-20-20H452a20 20 0 0 0-20 20v5h160v-5z m307 65H125v400a20 20 0 0 0 20 20h734a20 20 0 0 0 20-20v-400z m-288 311a30 30 0 0 1-42.426 0L434.218 386.864 299.861 521.219a30 30 0 0 1-42.427-42.426L413 323.231a30 30 0 0 1 42.426 0l134.351 134.35 134.35-134.35a30 30 0 1 1 42.426 42.426z" style="fill:#AABBC3;" p-id="14409"></path></svg>