<?xml version="1.0" standalone="no"?><!DOCTYPE svg PUBLIC "-//W3C//DTD SVG 1.1//EN" "http://www.w3.org/Graphics/SVG/1.1/DTD/svg11.dtd"><svg t="1681896232616" class="icon" viewBox="0 0 1024 1024" version="1.1" xmlns="http://www.w3.org/2000/svg" p-id="16860" xmlns:xlink="http://www.w3.org/1999/xlink" width="128" height="128"><path d="M544 458.666667H426.666667a117.333333 117.333333 0 1 1 0-234.666667h117.333333v234.666667z m-117.333333-170.666667a53.333333 53.333333 0 1 0 0 106.666667h53.333333v-106.666667z" style="fill:#AABBC3;" p-id="16861"></path><path d="M544 629.333333H426.666667a117.333333 117.333333 0 1 1 0-234.666666h117.333333v234.666666z m-117.333333-170.666666a53.333333 53.333333 0 1 0 0 106.666666h53.333333v-106.666666z" style="fill:#AABBC3;" p-id="16862"></path><path d="M426.666667 800a117.333333 117.333333 0 1 1 0-234.666667h117.333333V682.666667A117.461333 117.461333 0 0 1 426.666667 800z m0-170.666667A53.333333 53.333333 0 1 0 480 682.666667v-53.333334zM597.333333 458.666667h-117.333333v-234.666667H597.333333a117.333333 117.333333 0 0 1 0 234.666667z m-53.333333-170.666667v106.666667H597.333333a53.333333 53.333333 0 0 0 0-106.666667z" style="fill:#AABBC3;" p-id="16863"></path><path d="M597.333333 629.333333A117.333333 117.333333 0 1 1 714.666667 512 117.461333 117.461333 0 0 1 597.333333 629.333333z m0-170.666666A53.333333 53.333333 0 1 0 650.666667 512 53.418667 53.418667 0 0 0 597.333333 458.666667z" style="fill:#AABBC3;" p-id="16864"></path><path d="M512 970.666667A458.666667 458.666667 0 1 1 970.666667 512 459.178667 459.178667 0 0 1 512 970.666667z m0-853.333334A394.666667 394.666667 0 1 0 906.666667 512 395.093333 395.093333 0 0 0 512 117.333333z" style="fill:#AABBC3;" p-id="16865"></path></svg>