<?xml version="1.0" standalone="no"?><!DOCTYPE svg PUBLIC "-//W3C//DTD SVG 1.1//EN" "http://www.w3.org/Graphics/SVG/1.1/DTD/svg11.dtd"><svg t="1681896129249" class="icon" viewBox="0 0 1024 1024" version="1.1" xmlns="http://www.w3.org/2000/svg" p-id="13053" xmlns:xlink="http://www.w3.org/1999/xlink" width="128" height="128"><path d="M853.333333 170.666667 170.666667 170.666667C123.733333 170.666667 85.333333 209.066667 85.333333 256l0 512c0 46.933333 38.4 85.333333 85.333333 85.333333l682.666667 0c46.933333 0 85.333333-38.4 85.333333-85.333333L938.666667 256C938.666667 209.066667 900.266667 170.666667 853.333333 170.666667zM853.333333 768l-85.333333 0L768 392.533333 512 554.666667 256 392.533333 256 768 170.666667 768 170.666667 256l51.2 0 290.133333 179.2L802.133333 256 853.333333 256 853.333333 768z" style="fill:#AABBC3;" p-id="13054"></path></svg>