<?xml version="1.0" standalone="no"?><!DOCTYPE svg PUBLIC "-//W3C//DTD SVG 1.1//EN" "http://www.w3.org/Graphics/SVG/1.1/DTD/svg11.dtd"><svg t="1681896202090" class="icon" viewBox="0 0 1024 1024" version="1.1" xmlns="http://www.w3.org/2000/svg" p-id="15477" xmlns:xlink="http://www.w3.org/1999/xlink" width="128" height="128"><path d="M512 0C228.072727 0 0 228.072727 0 512s228.072727 512 512 512 512-228.072727 512-512S795.927273 0 512 0z m253.672727 274.618182l-93.090909 304.872727c-13.963636 44.218182-48.872727 81.454545-93.090909 93.090909l-304.872727 93.090909c-9.309091 2.327273-18.618182-6.981818-16.290909-16.290909l93.090909-304.872727c13.963636-44.218182 48.872727-81.454545 93.090909-93.090909l304.872727-93.090909c9.309091-2.327273 18.618182 6.981818 16.290909 16.290909z" style="fill:#AABBC3;" p-id="15478"></path><path d="M512 512m-58.181818 0a58.181818 58.181818 0 1 0 116.363636 0 58.181818 58.181818 0 1 0-116.363636 0Z" style="fill:#AABBC3;" p-id="15479"></path></svg>