<?xml version="1.0" standalone="no"?><!DOCTYPE svg PUBLIC "-//W3C//DTD SVG 1.1//EN" "http://www.w3.org/Graphics/SVG/1.1/DTD/svg11.dtd"><svg t="1681896155951" class="icon" viewBox="0 0 1024 1024" version="1.1" xmlns="http://www.w3.org/2000/svg" p-id="14121" xmlns:xlink="http://www.w3.org/1999/xlink" width="128" height="128"><path d="M512 870.4c-115.7 0-225.3-34.8-308.6-97.9-42.6-32.3-76.4-70.4-100.3-113.3-25.9-46.3-39-95.8-39-147.2 0-51.3 13.1-100.8 39-147.2 23.9-42.9 57.7-81 100.3-113.3 83.3-63.2 192.9-97.9 308.6-97.9v78.3-78.3c115.7 0 225.3 34.8 308.6 97.9 42.6 32.3 76.3 70.4 100.3 113.3 25.9 46.3 39 95.8 39 147.2 0 51.3-13.1 100.8-39 147.2-23.9 42.9-57.7 81-100.3 113.3-83.3 63.1-192.9 97.9-308.6 97.9z m0-560.2c-81.7 0-157.7 23.5-214 66.1-49.8 37.8-77.2 85.9-77.2 135.7 0 49.7 27.4 97.9 77.2 135.7 56.3 42.7 132.3 66.1 214 66.1s157.7-23.5 214-66.1c49.8-37.8 77.2-85.9 77.2-135.7 0-49.7-27.4-97.9-77.2-135.7-56.3-42.6-132.3-66.1-214-66.1z" style="fill:#AABBC3;" p-id="14122"></path><path d="M512 381.5c-72 0-130.4 58.5-130.4 130.5S440 642.5 512 642.5 642.5 584.1 642.5 512 584.1 381.5 512 381.5z" style="fill:#AABBC3;" p-id="14123"></path></svg>